ridiculous-obsessions.ufo
<glyph name=".notdef" format="2">
  <advance width="522"/>
  <unicode hex="0000"/>
  <outline>
    <contour>
      <point x="50" y="684" type="curve"/>
      <point x="50" y="684"/>
      <point x="472" y="684"/>
      <point x="472" y="684" type="curve"/>
      <point x="472" y="684"/>
      <point x="472" y="0"/>
      <point x="472" y="0" type="curve"/>
      <point x="472" y="0"/>
      <point x="50" y="0"/>
      <point x="50" y="0" type="curve"/>
      <point x="50" y="0"/>
      <point x="50" y="684"/>
    </contour>
    <contour>
      <point x="99" y="49" type="curve"/>
      <point x="99" y="49"/>
      <point x="423" y="49"/>
      <point x="423" y="49" type="curve"/>
      <point x="423" y="49"/>
      <point x="423" y="635"/>
      <point x="423" y="635" type="curve"/>
      <point x="423" y="635"/>
      <point x="99" y="635"/>
      <point x="99" y="635" type="curve"/>
      <point x="99" y="635"/>
      <point x="99" y="49"/>
    </contour>
  </outline>
</glyph>
<glyph name="space" format="2">
  <advance width="500"/>
  <unicode hex="0020"/>
  <outline>
    <contour>
      <point x="-533" y="607" type="curve"/>
      <point x="-533" y="607"/>
      <point x="-533" y="607"/>
    </contour>
  </outline>
</glyph>
<glyph name="exclam" format="2">
  <advance width="228"/>
  <unicode hex="0021"/>
  <outline>
    <contour>
      <point x="178" y="631" type="curve" smooth="yes"/>
      <point x="178" y="631"/>
      <point x="146" y="241"/>
      <point x="146" y="241" type="curve" smooth="yes"/>
      <point x="145.036" y="223.65"/>
      <point x="130.137" y="210.946"/>
      <point x="113.838" y="210.946" type="curve" smooth="yes"/>
      <point x="113.227" y="210.946"/>
      <point x="112.614" y="210.964"/>
      <point x="112" y="211" type="curve" smooth="yes"/>
      <point x="96" y="212"/>
      <point x="83" y="225"/>
      <point x="82" y="241" type="curve" smooth="yes"/>
      <point x="82" y="241"/>
      <point x="50" y="631"/>
      <point x="50" y="631" type="curve" smooth="yes"/>
      <point x="49.8471" y="632.783"/>
      <point x="49.7722" y="634.556"/>
      <point x="49.7722" y="636.316" type="curve" smooth="yes"/>
      <point x="49.7722" y="670.15"/>
      <point x="77.5351" y="700.228"/>
      <point x="114.316" y="700.228" type="curve" smooth="yes"/>
      <point x="147.086" y="700.228"/>
      <point x="175.153" y="674.217"/>
      <point x="178" y="641" type="curve" smooth="yes"/>
      <point x="178" y="638"/>
      <point x="178" y="634"/>
    </contour>
    <contour>
      <point x="114" y="-15" type="curve" smooth="yes"/>
      <point x="79" y="-15"/>
      <point x="50" y="14"/>
      <point x="50" y="49" type="curve" smooth="yes"/>
      <point x="50" y="84"/>
      <point x="79" y="113"/>
      <point x="114" y="113" type="curve" smooth="yes"/>
      <point x="149" y="113"/>
      <point x="178" y="84"/>
      <point x="178" y="49" type="curve" smooth="yes"/>
      <point x="178" y="14"/>
      <point x="149" y="-15"/>
    </contour>
  </outline>
</glyph>
<glyph name="quotedbl" format="2">
  <advance width="395"/>
  <unicode hex="0022"/>
  <outline>
    <contour>
      <point x="181" y="611" type="curve" smooth="yes"/>
      <point x="181" y="611"/>
      <point x="149" y="514"/>
      <point x="149" y="514" type="curve" smooth="yes"/>
      <point x="144" y="497"/>
      <point x="125" y="487"/>
      <point x="107" y="493" type="curve" smooth="yes"/>
      <point x="96" y="496"/>
      <point x="89" y="505"/>
      <point x="85" y="514" type="curve" smooth="yes"/>
      <point x="85" y="514"/>
      <point x="53" y="611"/>
      <point x="53" y="611" type="curve" smooth="yes"/>
      <point x="42" y="647"/>
      <point x="61" y="685"/>
      <point x="96" y="697" type="curve" smooth="yes"/>
      <point x="132" y="708"/>
      <point x="170" y="689"/>
      <point x="181" y="654" type="curve" smooth="yes"/>
      <point x="186" y="639"/>
      <point x="186" y="625"/>
    </contour>
    <contour>
      <point x="341" y="611" type="curve" smooth="yes"/>
      <point x="341" y="611"/>
      <point x="309" y="514"/>
      <point x="309" y="514" type="curve" smooth="yes"/>
      <point x="304" y="497"/>
      <point x="285" y="487"/>
      <point x="267" y="493" type="curve" smooth="yes"/>
      <point x="256" y="496"/>
      <point x="249" y="505"/>
      <point x="245" y="514" type="curve" smooth="yes"/>
      <point x="245" y="514"/>
      <point x="213" y="611"/>
      <point x="213" y="611" type="curve" smooth="yes"/>
      <point x="202" y="647"/>
      <point x="221" y="685"/>
      <point x="256" y="697" type="curve" smooth="yes"/>
      <point x="292" y="708"/>
      <point x="330" y="689"/>
      <point x="341" y="654" type="curve" smooth="yes"/>
      <point x="346" y="639"/>
      <point x="346" y="625"/>
    </contour>
  </outline>
</glyph>
<glyph name="ampersand" format="2">
  <advance width="615"/>
  <unicode hex="0026"/>
  <outline>
    <contour>
      <point x="556" y="54" type="curve" smooth="yes"/>
      <point x="584" y="23"/>
      <point x="541" y="-20"/>
      <point x="510" y="10" type="curve" smooth="yes"/>
      <point x="509" y="11"/>
      <point x="496" y="25"/>
      <point x="475" y="47" type="curve"/>
      <point x="426" y="3"/>
      <point x="361" y="-18"/>
      <point x="296" y="-15" type="curve" smooth="yes"/>
      <point x="233" y="-13"/>
      <point x="170" y="12"/>
      <point x="125" y="59" type="curve" smooth="yes"/>
      <point x="75" y="110"/>
      <point x="50" y="174"/>
      <point x="50" y="236" type="curve" smooth="yes"/>
      <point x="49" y="327"/>
      <point x="99" y="417"/>
      <point x="190" y="466" type="curve"/>
      <point x="168" y="524"/>
      <point x="167" y="571"/>
      <point x="177" y="608" type="curve" smooth="yes"/>
      <point x="195" y="668"/>
      <point x="247" y="699"/>
      <point x="299" y="700" type="curve" smooth="yes"/>
      <point x="362" y="701"/>
      <point x="427" y="657"/>
      <point x="431" y="566" type="curve" smooth="yes"/>
      <point x="432" y="499"/>
      <point x="376" y="450"/>
      <point x="311" y="440" type="curve" smooth="yes"/>
      <point x="298" y="438"/>
      <point x="286" y="436"/>
      <point x="274" y="432" type="curve"/>
      <point x="312" y="350"/>
      <point x="405" y="224"/>
      <point x="473" y="146" type="curve"/>
      <point x="492" y="179"/>
      <point x="502" y="221"/>
      <point x="496" y="261" type="curve"/>
      <point x="455" y="243"/>
      <point x="408" y="275"/>
      <point x="408" y="320" type="curve" smooth="yes"/>
      <point x="408" y="359"/>
      <point x="440" y="384"/>
      <point x="472" y="384" type="curve" smooth="yes"/>
      <point x="489" y="384"/>
      <point x="506" y="376"/>
      <point x="520" y="362" type="curve" smooth="yes"/>
      <point x="552" y="331"/>
      <point x="567" y="268"/>
      <point x="560" y="208" type="curve" smooth="yes"/>
      <point x="556" y="170"/>
      <point x="542" y="131"/>
      <point x="518" y="96" type="curve"/>
      <point x="541" y="70"/>
      <point x="556" y="55"/>
    </contour>
    <contour>
      <point x="301" y="636" type="curve" smooth="yes"/>
      <point x="262" y="636"/>
      <point x="235" y="607"/>
      <point x="235" y="566" type="curve" smooth="yes"/>
      <point x="235" y="544"/>
      <point x="240" y="519"/>
      <point x="249" y="491" type="curve"/>
      <point x="270" y="495"/>
      <point x="360" y="505"/>
      <point x="367" y="566" type="curve" smooth="yes"/>
      <point x="372" y="606"/>
      <point x="339" y="636"/>
    </contour>
    <contour>
      <point x="306" y="48" type="curve" smooth="yes"/>
      <point x="354" y="48"/>
      <point x="398" y="66"/>
      <point x="432" y="95" type="curve"/>
      <point x="359" y="178"/>
      <point x="256" y="317"/>
      <point x="215" y="407" type="curve"/>
      <point x="145" y="367"/>
      <point x="114" y="301"/>
      <point x="115" y="237" type="curve" smooth="yes"/>
      <point x="116" y="142"/>
      <point x="188" y="50"/>
    </contour>
  </outline>
</glyph>
<glyph name="period" format="2">
  <advance width="228"/>
  <unicode hex="002E"/>
  <outline>
    <contour>
      <point x="114" y="-16" type="curve" smooth="yes"/>
      <point x="79" y="-16"/>
      <point x="50" y="13"/>
      <point x="50" y="48" type="curve" smooth="yes"/>
      <point x="50" y="83"/>
      <point x="79" y="112"/>
      <point x="114" y="112" type="curve" smooth="yes"/>
      <point x="149" y="112"/>
      <point x="178" y="83"/>
      <point x="178" y="48" type="curve" smooth="yes"/>
      <point x="178" y="13"/>
      <point x="149" y="-16"/>
    </contour>
  </outline>
</glyph>
<glyph name="colon" format="2">
  <advance width="292"/>
  <unicode hex="003A"/>
  <outline>
    <contour>
      <point x="146" y="274" type="curve" smooth="yes"/>
      <point x="93" y="274"/>
      <point x="50" y="317"/>
      <point x="50" y="370" type="curve" smooth="yes"/>
      <point x="50" y="423"/>
      <point x="93" y="466"/>
      <point x="146" y="466" type="curve" smooth="yes"/>
      <point x="199" y="466"/>
      <point x="242" y="423"/>
      <point x="242" y="370" type="curve" smooth="yes"/>
      <point x="242" y="317"/>
      <point x="199" y="274"/>
    </contour>
    <contour>
      <point x="146" y="17" type="curve" smooth="yes"/>
      <point x="93" y="17"/>
      <point x="50" y="60"/>
      <point x="50" y="113" type="curve" smooth="yes"/>
      <point x="50" y="166"/>
      <point x="93" y="209"/>
      <point x="146" y="209" type="curve" smooth="yes"/>
      <point x="199" y="209"/>
      <point x="242" y="166"/>
      <point x="242" y="113" type="curve" smooth="yes"/>
      <point x="242" y="60"/>
      <point x="199" y="17"/>
    </contour>
  </outline>
</glyph>
<glyph name="semicolon" format="2">
  <advance width="229"/>
  <unicode hex="003B"/>
  <outline>
    <contour>
      <point x="178" y="48" type="curve" smooth="yes"/>
      <point x="186" y="-10"/>
      <point x="119" y="-96"/>
      <point x="84" y="-96" type="curve" smooth="yes"/>
      <point x="65" y="-96"/>
      <point x="81" y="-55"/>
      <point x="77" y="-21" type="curve" smooth="yes"/>
      <point x="74" y="9"/>
      <point x="50" y="8"/>
      <point x="50" y="48" type="curve" smooth="yes"/>
      <point x="50" y="83"/>
      <point x="79" y="112"/>
      <point x="114" y="112" type="curve" smooth="yes"/>
      <point x="149" y="112"/>
      <point x="173" y="83"/>
    </contour>
    <contour>
      <point x="114" y="177" type="curve" smooth="yes"/>
      <point x="79" y="177"/>
      <point x="50" y="206"/>
      <point x="50" y="241" type="curve" smooth="yes"/>
      <point x="50" y="276"/>
      <point x="79" y="305"/>
      <point x="114" y="305" type="curve" smooth="yes"/>
      <point x="149" y="305"/>
      <point x="178" y="276"/>
      <point x="178" y="241" type="curve" smooth="yes"/>
      <point x="178" y="206"/>
      <point x="149" y="177"/>
    </contour>
  </outline>
</glyph>
<glyph name="question" format="2">
  <advance width="466"/>
  <unicode hex="003F"/>
  <outline>
    <contour>
      <point x="207" y="208" type="curve" smooth="yes"/>
      <point x="189" y="208"/>
      <point x="175" y="222"/>
      <point x="175" y="240" type="curve" smooth="yes"/>
      <point x="175" y="240"/>
      <point x="175" y="313"/>
      <point x="175" y="313" type="curve" smooth="yes"/>
      <point x="175" y="321"/>
      <point x="178" y="329"/>
      <point x="184" y="335" type="curve" smooth="yes"/>
      <point x="190" y="341"/>
      <point x="198" y="345"/>
      <point x="207" y="345" type="curve" smooth="yes"/>
      <point x="302" y="349"/>
      <point x="351" y="418"/>
      <point x="352" y="488" type="curve" smooth="yes"/>
      <point x="352" y="560"/>
      <point x="304" y="632"/>
      <point x="207" y="636" type="curve" smooth="yes"/>
      <point x="168" y="636"/>
      <point x="132" y="621"/>
      <point x="104" y="594" type="curve" smooth="yes"/>
      <point x="92" y="582"/>
      <point x="72" y="582"/>
      <point x="59" y="595" type="curve" smooth="yes"/>
      <point x="47" y="607"/>
      <point x="47" y="628"/>
      <point x="60" y="640" type="curve" smooth="yes"/>
      <point x="101" y="681"/>
      <point x="152" y="700"/>
      <point x="203" y="700" type="curve" smooth="yes"/>
      <point x="311" y="700"/>
      <point x="417" y="616"/>
      <point x="416" y="490" type="curve" smooth="yes"/>
      <point x="416" y="386"/>
      <point x="339" y="299"/>
      <point x="239" y="283" type="curve"/>
      <point x="239" y="283"/>
      <point x="239" y="240"/>
      <point x="239" y="240" type="curve" smooth="yes"/>
      <point x="239" y="222"/>
      <point x="224" y="208"/>
    </contour>
    <contour>
      <point x="207" y="-16" type="curve" smooth="yes"/>
      <point x="172" y="-16"/>
      <point x="143" y="13"/>
      <point x="143" y="48" type="curve" smooth="yes"/>
      <point x="143" y="83"/>
      <point x="172" y="112"/>
      <point x="207" y="112" type="curve" smooth="yes"/>
      <point x="242" y="112"/>
      <point x="271" y="83"/>
      <point x="271" y="48" type="curve" smooth="yes"/>
      <point x="271" y="13"/>
      <point x="242" y="-16"/>
    </contour>
  </outline>
</glyph>
<glyph name="a" format="2">
  <advance width="634"/>
  <unicode hex="0061"/>
  <outline>
    <contour>
      <point x="584" y="82" type="curve" smooth="yes"/>
      <point x="584" y="77"/>
      <point x="585" y="40"/>
      <point x="559" y="12" type="curve" smooth="yes"/>
      <point x="533" y="-18"/>
      <point x="463" y="-29"/>
      <point x="426" y="7" type="curve" smooth="yes"/>
      <point x="413" y="19"/>
      <point x="404" y="36"/>
      <point x="398" y="58" type="curve"/>
      <point x="351" y="8"/>
      <point x="277" y="-19"/>
      <point x="208" y="-15" type="curve" smooth="yes"/>
      <point x="157" y="-13"/>
      <point x="110" y="7"/>
      <point x="79" y="47" type="curve" smooth="yes"/>
      <point x="30" y="108"/>
      <point x="46" y="185"/>
      <point x="108" y="226" type="curve" smooth="yes"/>
      <point x="141" y="248"/>
      <point x="187" y="259"/>
      <point x="244" y="259" type="curve" smooth="yes"/>
      <point x="340" y="259"/>
      <point x="387" y="282"/>
      <point x="386" y="314" type="curve"/>
      <point x="373" y="394"/>
      <point x="283" y="458"/>
      <point x="194" y="422" type="curve"/>
      <point x="226" y="381"/>
      <point x="196" y="319"/>
      <point x="143" y="319" type="curve" smooth="yes"/>
      <point x="99" y="319"/>
      <point x="72" y="368"/>
      <point x="84" y="406" type="curve" smooth="yes"/>
      <point x="99" y="459"/>
      <point x="174" y="491"/>
      <point x="228" y="495" type="curve" smooth="yes"/>
      <point x="322" y="503"/>
      <point x="424" y="446"/>
      <point x="448" y="329" type="curve" smooth="yes"/>
      <point x="449" y="328"/>
      <point x="449" y="327"/>
      <point x="449" y="326" type="curve" smooth="yes"/>
      <point x="460" y="266"/>
      <point x="453" y="232"/>
      <point x="452" y="181" type="curve" smooth="yes"/>
      <point x="452" y="145"/>
      <point x="452" y="102"/>
      <point x="459" y="75" type="curve" smooth="yes"/>
      <point x="466" y="50"/>
      <point x="479" y="48"/>
      <point x="490" y="48" type="curve" smooth="yes"/>
      <point x="502" y="48"/>
      <point x="519" y="56"/>
      <point x="520" y="79" type="curve" smooth="yes"/>
      <point x="521" y="96"/>
      <point x="533" y="111"/>
      <point x="551" y="112" type="curve" smooth="yes"/>
      <point x="568" y="113"/>
      <point x="583" y="99"/>
    </contour>
    <contour>
      <point x="343" y="94" type="curve" smooth="yes"/>
      <point x="374" y="121"/>
      <point x="388" y="151"/>
      <point x="388" y="169" type="curve" smooth="yes"/>
      <point x="388" y="187"/>
      <point x="389" y="206"/>
      <point x="390" y="222" type="curve"/>
      <point x="355" y="204"/>
      <point x="306" y="195"/>
      <point x="244" y="195" type="curve" smooth="yes"/>
      <point x="200" y="195"/>
      <point x="166" y="187"/>
      <point x="143" y="172" type="curve" smooth="yes"/>
      <point x="128" y="162"/>
      <point x="118" y="149"/>
      <point x="114" y="132" type="curve" smooth="yes"/>
      <point x="112" y="124"/>
      <point x="115" y="105"/>
      <point x="129" y="86" type="curve" smooth="yes"/>
      <point x="143" y="69"/>
      <point x="170" y="48"/>
      <point x="223" y="48" type="curve" smooth="yes"/>
      <point x="282" y="48"/>
      <point x="323" y="77"/>
    </contour>
  </outline>
</glyph>
<glyph name="b" format="2">
  <advance width="657"/>
  <unicode hex="0062"/>
  <outline>
    <contour>
      <point x="539" y="420" type="curve"/>
      <point x="630" y="327"/>
      <point x="630" y="153"/>
      <point x="539" y="59" type="curve"/>
      <point x="457" y="-32"/>
      <point x="301" y="-43"/>
      <point x="210" y="39" type="curve"/>
      <point x="210" y="39"/>
      <point x="216" y="0"/>
      <point x="174" y="0" type="curve" smooth="yes"/>
      <point x="174" y="0"/>
      <point x="82" y="0"/>
      <point x="82" y="0" type="curve" smooth="yes"/>
      <point x="39" y="1"/>
      <point x="39" y="62"/>
      <point x="82" y="64" type="curve" smooth="yes"/>
      <point x="82" y="64"/>
      <point x="146" y="64"/>
      <point x="146" y="64" type="curve"/>
      <point x="146" y="64"/>
      <point x="146" y="636"/>
      <point x="146" y="636" type="curve"/>
      <point x="146" y="636"/>
      <point x="82" y="636"/>
      <point x="82" y="636" type="curve" smooth="yes"/>
      <point x="39" y="638"/>
      <point x="39" y="698"/>
      <point x="82" y="700" type="curve" smooth="yes"/>
      <point x="82" y="700"/>
      <point x="178" y="700"/>
      <point x="178" y="700" type="curve" smooth="yes"/>
      <point x="195" y="700"/>
      <point x="210" y="686"/>
      <point x="210" y="668" type="curve" smooth="yes"/>
      <point x="210" y="668"/>
      <point x="210" y="440"/>
      <point x="210" y="440" type="curve"/>
      <point x="301" y="522"/>
      <point x="457" y="511"/>
    </contour>
    <contour>
      <point x="362" y="48" type="curve" smooth="yes"/>
      <point x="466" y="48"/>
      <point x="544" y="130"/>
      <point x="544" y="240" type="curve" smooth="yes"/>
      <point x="544" y="439"/>
      <point x="301" y="499"/>
      <point x="210" y="343" type="curve"/>
      <point x="210" y="343"/>
      <point x="210" y="137"/>
      <point x="210" y="137" type="curve"/>
      <point x="236" y="95"/>
      <point x="283" y="48"/>
    </contour>
  </outline>
</glyph>
<glyph name="c" format="2">
  <advance width="582"/>
  <unicode hex="0063"/>
  <outline>
    <contour>
      <point x="532" y="448" type="curve" smooth="yes"/>
      <point x="532" y="448"/>
      <point x="532" y="352"/>
      <point x="532" y="352" type="curve" smooth="yes"/>
      <point x="532" y="317"/>
      <point x="486" y="310"/>
      <point x="471" y="337" type="curve" smooth="yes"/>
      <point x="371" y="505"/>
      <point x="115" y="436"/>
      <point x="114" y="240" type="curve" smooth="yes"/>
      <point x="115" y="44"/>
      <point x="372" y="-24"/>
      <point x="472" y="144" type="curve" smooth="yes"/>
      <point x="495" y="180"/>
      <point x="547" y="150"/>
      <point x="527" y="112" type="curve" smooth="yes"/>
      <point x="445" y="-32"/>
      <point x="241" y="-60"/>
      <point x="124" y="59" type="curve" smooth="yes"/>
      <point x="25" y="155"/>
      <point x="25" y="326"/>
      <point x="124" y="421" type="curve"/>
      <point x="214" y="514"/>
      <point x="369" y="521"/>
      <point x="468" y="439" type="curve"/>
      <point x="468" y="439"/>
      <point x="468" y="448"/>
      <point x="468" y="448" type="curve" smooth="yes"/>
      <point x="469" y="491"/>
      <point x="530" y="491"/>
    </contour>
  </outline>
</glyph>
<glyph name="d" format="2">
  <advance width="658"/>
  <unicode hex="0064"/>
  <outline>
    <contour>
      <point x="576" y="64" type="curve" smooth="yes"/>
      <point x="597" y="63"/>
      <point x="608" y="47"/>
      <point x="608" y="32" type="curve" smooth="yes"/>
      <point x="608" y="16"/>
      <point x="597" y="1"/>
      <point x="576" y="0" type="curve" smooth="yes"/>
      <point x="576" y="0"/>
      <point x="484" y="0"/>
      <point x="484" y="0" type="curve" smooth="yes"/>
      <point x="443" y="0"/>
      <point x="448" y="39"/>
      <point x="448" y="39" type="curve"/>
      <point x="366" y="-28"/>
      <point x="266" y="-31"/>
      <point x="186" y="10" type="curve" smooth="yes"/>
      <point x="107" y="50"/>
      <point x="49" y="134"/>
      <point x="50" y="240" type="curve" smooth="yes"/>
      <point x="49" y="361"/>
      <point x="126" y="453"/>
      <point x="223" y="485" type="curve" smooth="yes"/>
      <point x="295" y="508"/>
      <point x="378" y="498"/>
      <point x="448" y="440" type="curve"/>
      <point x="448" y="440"/>
      <point x="448" y="668"/>
      <point x="448" y="668" type="curve" smooth="yes"/>
      <point x="448" y="686"/>
      <point x="462" y="700"/>
      <point x="480" y="700" type="curve" smooth="yes"/>
      <point x="480" y="700"/>
      <point x="576" y="700"/>
      <point x="576" y="700" type="curve" smooth="yes"/>
      <point x="597" y="699"/>
      <point x="608" y="684"/>
      <point x="608" y="668" type="curve" smooth="yes"/>
      <point x="608" y="652"/>
      <point x="597" y="637"/>
      <point x="576" y="636" type="curve" smooth="yes"/>
      <point x="576" y="636"/>
      <point x="512" y="636"/>
      <point x="512" y="636" type="curve"/>
      <point x="512" y="636"/>
      <point x="512" y="64"/>
      <point x="512" y="64" type="curve"/>
      <point x="512" y="64"/>
      <point x="576" y="64"/>
    </contour>
    <contour>
      <point x="296" y="48" type="curve" smooth="yes"/>
      <point x="375" y="48"/>
      <point x="422" y="95"/>
      <point x="448" y="137" type="curve"/>
      <point x="448" y="137"/>
      <point x="448" y="343"/>
      <point x="448" y="343" type="curve"/>
      <point x="357" y="499"/>
      <point x="114" y="439"/>
      <point x="114" y="240" type="curve" smooth="yes"/>
      <point x="114" y="130"/>
      <point x="192" y="48"/>
    </contour>
  </outline>
</glyph>
<glyph name="e" format="2">
  <advance width="612"/>
  <unicode hex="0065"/>
  <outline>
    <contour>
      <point x="562" y="241" type="curve" smooth="yes"/>
      <point x="563" y="223"/>
      <point x="548" y="208"/>
      <point x="530" y="208" type="curve" smooth="yes"/>
      <point x="530" y="208"/>
      <point x="117" y="208"/>
      <point x="117" y="208" type="curve"/>
      <point x="132" y="114"/>
      <point x="211" y="54"/>
      <point x="296" y="49" type="curve" smooth="yes"/>
      <point x="347" y="45"/>
      <point x="399" y="62"/>
      <point x="440" y="102" type="curve" smooth="yes"/>
      <point x="453" y="115"/>
      <point x="473" y="115"/>
      <point x="485" y="102" type="curve" smooth="yes"/>
      <point x="498" y="89"/>
      <point x="497" y="69"/>
      <point x="485" y="57" type="curve" smooth="yes"/>
      <point x="437" y="10"/>
      <point x="373" y="-16"/>
      <point x="306" y="-16" type="curve" smooth="yes"/>
      <point x="155" y="-16"/>
      <point x="54" y="106"/>
      <point x="50" y="235" type="curve" smooth="yes"/>
      <point x="48" y="300"/>
      <point x="71" y="367"/>
      <point x="125" y="421" type="curve" smooth="yes"/>
      <point x="176" y="472"/>
      <point x="239" y="495"/>
      <point x="300" y="496" type="curve" smooth="yes"/>
      <point x="433" y="498"/>
      <point x="561" y="396"/>
    </contour>
    <contour>
      <point x="117" y="272" type="curve"/>
      <point x="117" y="272"/>
      <point x="495" y="272"/>
      <point x="495" y="272" type="curve"/>
      <point x="455" y="485"/>
      <point x="157" y="484"/>
    </contour>
  </outline>
</glyph>
<glyph name="f" format="2">
  <advance width="450"/>
  <unicode hex="0066"/>
  <outline>
    <contour>
      <point x="384" y="639" type="curve" smooth="yes"/>
      <point x="428" y="557"/>
      <point x="369" y="516"/>
      <point x="336" y="516" type="curve" smooth="yes"/>
      <point x="273" y="516"/>
      <point x="249" y="597"/>
      <point x="300" y="633" type="curve"/>
      <point x="293" y="635"/>
      <point x="286" y="636"/>
      <point x="278" y="636" type="curve" smooth="yes"/>
      <point x="249" y="636"/>
      <point x="230" y="626"/>
      <point x="220" y="604" type="curve" smooth="yes"/>
      <point x="210" y="581"/>
      <point x="210" y="557"/>
      <point x="210" y="557" type="curve" smooth="yes"/>
      <point x="210" y="556"/>
      <point x="210" y="556"/>
      <point x="210" y="556" type="curve"/>
      <point x="210" y="556"/>
      <point x="210" y="448"/>
      <point x="210" y="448" type="curve"/>
      <point x="210" y="448"/>
      <point x="256" y="448"/>
      <point x="274" y="448" type="curve" smooth="yes"/>
      <point x="292" y="448"/>
      <point x="306" y="434"/>
      <point x="306" y="416" type="curve" smooth="yes"/>
      <point x="306" y="398"/>
      <point x="292" y="384"/>
      <point x="274" y="384" type="curve" smooth="yes"/>
      <point x="274" y="384"/>
      <point x="210" y="384"/>
      <point x="210" y="384" type="curve"/>
      <point x="210" y="384"/>
      <point x="210" y="64"/>
      <point x="210" y="64" type="curve"/>
      <point x="210" y="64"/>
      <point x="256" y="64"/>
      <point x="274" y="64" type="curve" smooth="yes"/>
      <point x="292" y="64"/>
      <point x="306" y="50"/>
      <point x="306" y="32" type="curve" smooth="yes"/>
      <point x="306" y="14"/>
      <point x="292" y="0"/>
      <point x="274" y="0" type="curve" smooth="yes"/>
      <point x="274" y="0"/>
      <point x="100" y="0"/>
      <point x="82" y="0" type="curve" smooth="yes"/>
      <point x="64" y="0"/>
      <point x="50" y="14"/>
      <point x="50" y="32" type="curve" smooth="yes"/>
      <point x="50" y="50"/>
      <point x="64" y="64"/>
      <point x="82" y="64" type="curve" smooth="yes"/>
      <point x="82" y="64"/>
      <point x="146" y="64"/>
      <point x="146" y="64" type="curve"/>
      <point x="146" y="64"/>
      <point x="146" y="384"/>
      <point x="146" y="384" type="curve"/>
      <point x="146" y="384"/>
      <point x="100" y="384"/>
      <point x="82" y="384" type="curve" smooth="yes"/>
      <point x="64" y="384"/>
      <point x="50" y="398"/>
      <point x="50" y="416" type="curve" smooth="yes"/>
      <point x="50" y="434"/>
      <point x="64" y="448"/>
      <point x="82" y="448" type="curve" smooth="yes"/>
      <point x="82" y="448"/>
      <point x="146" y="448"/>
      <point x="146" y="448" type="curve"/>
      <point x="146" y="448"/>
      <point x="146" y="556"/>
      <point x="146" y="556" type="curve" smooth="yes"/>
      <point x="146" y="678"/>
      <point x="233" y="700"/>
      <point x="277" y="700" type="curve" smooth="yes"/>
      <point x="345" y="700"/>
      <point x="374" y="657"/>
    </contour>
  </outline>
</glyph>
<glyph name="g" format="2">
  <advance width="507"/>
  <unicode hex="0067"/>
  <outline>
    <contour>
      <point x="216" y="94" type="curve"/>
      <point x="432" y="108"/>
      <point x="535" y="-114"/>
      <point x="390" y="-243" type="curve" smooth="yes"/>
      <point x="333" y="-294"/>
      <point x="245" y="-312"/>
      <point x="169" y="-292" type="curve" smooth="yes"/>
      <point x="137" y="-284"/>
      <point x="107" y="-269"/>
      <point x="83" y="-247" type="curve" smooth="yes"/>
      <point x="43" y="-207"/>
      <point x="71" y="-138"/>
      <point x="128" y="-138" type="curve" smooth="yes"/>
      <point x="175" y="-138"/>
      <point x="206" y="-188"/>
      <point x="186" y="-230" type="curve"/>
      <point x="282" y="-257"/>
      <point x="394" y="-193"/>
      <point x="393" y="-100" type="curve" smooth="yes"/>
      <point x="393" y="20"/>
      <point x="220" y="69"/>
      <point x="126" y="-2" type="curve" smooth="yes"/>
      <point x="113" y="-12"/>
      <point x="94" y="-10"/>
      <point x="83" y="3" type="curve" smooth="yes"/>
      <point x="72" y="15"/>
      <point x="73" y="34"/>
      <point x="84" y="46" type="curve" smooth="yes"/>
      <point x="84" y="46"/>
      <point x="170" y="139"/>
      <point x="170" y="139" type="curve"/>
      <point x="-20" y="212"/>
      <point x="27" y="492"/>
      <point x="233" y="496" type="curve"/>
      <point x="233" y="496"/>
      <point x="425" y="496"/>
      <point x="425" y="496" type="curve" smooth="yes"/>
      <point x="443" y="496"/>
      <point x="457" y="482"/>
      <point x="457" y="464" type="curve" smooth="yes"/>
      <point x="457" y="446"/>
      <point x="443" y="432"/>
      <point x="425" y="432" type="curve" smooth="yes"/>
      <point x="425" y="432"/>
      <point x="373" y="432"/>
      <point x="373" y="432" type="curve"/>
      <point x="471" y="320"/>
      <point x="396" y="139"/>
      <point x="248" y="129" type="curve"/>
      <point x="248" y="129"/>
      <point x="216" y="94"/>
    </contour>
    <contour>
      <point x="113" y="312" type="curve" smooth="yes"/>
      <point x="113" y="246"/>
      <point x="167" y="192"/>
      <point x="233" y="192" type="curve" smooth="yes"/>
      <point x="392" y="199"/>
      <point x="392" y="425"/>
      <point x="233" y="432" type="curve" smooth="yes"/>
      <point x="167" y="432"/>
      <point x="113" y="378"/>
    </contour>
  </outline>
</glyph>
<glyph name="h" format="2">
  <advance width="667"/>
  <unicode hex="0068"/>
  <outline>
    <contour>
      <point x="585" y="64" type="curve" smooth="yes"/>
      <point x="607" y="64"/>
      <point x="618" y="48"/>
      <point x="617" y="32" type="curve" smooth="yes"/>
      <point x="617" y="16"/>
      <point x="606" y="0"/>
      <point x="585" y="0" type="curve" smooth="yes"/>
      <point x="585" y="0"/>
      <point x="393" y="0"/>
      <point x="393" y="0" type="curve" smooth="yes"/>
      <point x="371" y="0"/>
      <point x="361" y="16"/>
      <point x="361" y="32" type="curve" smooth="yes"/>
      <point x="361" y="48"/>
      <point x="372" y="64"/>
      <point x="393" y="64" type="curve" smooth="yes"/>
      <point x="393" y="64"/>
      <point x="458" y="64"/>
      <point x="458" y="64" type="curve"/>
      <point x="458" y="64"/>
      <point x="458" y="319"/>
      <point x="458" y="319" type="curve" smooth="yes"/>
      <point x="458" y="365"/>
      <point x="452" y="418"/>
      <point x="409" y="429" type="curve" smooth="yes"/>
      <point x="317" y="449"/>
      <point x="240" y="334"/>
      <point x="210" y="261" type="curve"/>
      <point x="210" y="261"/>
      <point x="210" y="64"/>
      <point x="210" y="64" type="curve"/>
      <point x="210" y="64"/>
      <point x="274" y="64"/>
      <point x="274" y="64" type="curve" smooth="yes"/>
      <point x="295" y="64"/>
      <point x="306" y="48"/>
      <point x="306" y="32" type="curve" smooth="yes"/>
      <point x="306" y="16"/>
      <point x="296" y="0"/>
      <point x="274" y="0" type="curve" smooth="yes"/>
      <point x="274" y="0"/>
      <point x="82" y="0"/>
      <point x="82" y="0" type="curve" smooth="yes"/>
      <point x="60" y="0"/>
      <point x="50" y="16"/>
      <point x="50" y="32" type="curve" smooth="yes"/>
      <point x="50" y="48"/>
      <point x="61" y="64"/>
      <point x="82" y="64" type="curve" smooth="yes"/>
      <point x="82" y="64"/>
      <point x="146" y="64"/>
      <point x="146" y="64" type="curve"/>
      <point x="146" y="64"/>
      <point x="146" y="636"/>
      <point x="146" y="636" type="curve"/>
      <point x="146" y="636"/>
      <point x="82" y="636"/>
      <point x="82" y="636" type="curve" smooth="yes"/>
      <point x="40" y="638"/>
      <point x="40" y="698"/>
      <point x="82" y="700" type="curve" smooth="yes"/>
      <point x="82" y="700"/>
      <point x="178" y="700"/>
      <point x="178" y="700" type="curve" smooth="yes"/>
      <point x="196" y="700"/>
      <point x="210" y="686"/>
      <point x="210" y="668" type="curve" smooth="yes"/>
      <point x="210" y="668"/>
      <point x="210" y="389"/>
      <point x="210" y="389" type="curve"/>
      <point x="263" y="462"/>
      <point x="330" y="496"/>
      <point x="387" y="496" type="curve" smooth="yes"/>
      <point x="444" y="497"/>
      <point x="491" y="465"/>
      <point x="511" y="405" type="curve" smooth="yes"/>
      <point x="522" y="371"/>
      <point x="522" y="337"/>
      <point x="522" y="319" type="curve" smooth="yes"/>
      <point x="522" y="319"/>
      <point x="522" y="64"/>
      <point x="522" y="64" type="curve"/>
      <point x="522" y="64"/>
      <point x="585" y="64"/>
    </contour>
  </outline>
</glyph>
<glyph name="i" format="2">
  <advance width="356"/>
  <unicode hex="0069"/>
  <outline>
    <contour>
      <point x="178" y="539" type="curve" smooth="yes"/>
      <point x="143" y="539"/>
      <point x="114" y="568"/>
      <point x="114" y="603" type="curve" smooth="yes"/>
      <point x="117" y="688"/>
      <point x="239" y="688"/>
      <point x="242" y="603" type="curve" smooth="yes"/>
      <point x="242" y="568"/>
      <point x="213" y="539"/>
    </contour>
    <contour>
      <point x="274" y="64" type="curve" smooth="yes"/>
      <point x="295" y="64"/>
      <point x="306" y="48"/>
      <point x="306" y="32" type="curve" smooth="yes"/>
      <point x="306" y="16"/>
      <point x="295" y="0"/>
      <point x="274" y="0" type="curve" smooth="yes"/>
      <point x="274" y="0"/>
      <point x="82" y="0"/>
      <point x="82" y="0" type="curve" smooth="yes"/>
      <point x="60" y="0"/>
      <point x="50" y="17"/>
      <point x="50" y="33" type="curve" smooth="yes"/>
      <point x="50" y="49"/>
      <point x="61" y="64"/>
      <point x="82" y="64" type="curve" smooth="yes"/>
      <point x="82" y="64"/>
      <point x="146" y="64"/>
      <point x="146" y="64" type="curve"/>
      <point x="146" y="64"/>
      <point x="146" y="416"/>
      <point x="146" y="416" type="curve"/>
      <point x="146" y="416"/>
      <point x="132" y="416"/>
      <point x="114" y="416" type="curve" smooth="yes"/>
      <point x="96" y="416"/>
      <point x="82" y="431"/>
      <point x="82" y="448" type="curve" smooth="yes"/>
      <point x="82" y="466"/>
      <point x="96" y="480"/>
      <point x="114" y="480" type="curve" smooth="yes"/>
      <point x="114" y="480"/>
      <point x="178" y="480"/>
      <point x="178" y="480" type="curve" smooth="yes"/>
      <point x="196" y="480"/>
      <point x="210" y="466"/>
      <point x="210" y="448" type="curve" smooth="yes"/>
      <point x="210" y="448"/>
      <point x="210" y="64"/>
      <point x="210" y="64" type="curve"/>
      <point x="210" y="64"/>
      <point x="274" y="64"/>
    </contour>
  </outline>
</glyph>
<glyph name="j" format="2">
  <advance width="390"/>
  <unicode hex="006A"/>
  <outline>
    <contour>
      <point x="308" y="448" type="curve" smooth="yes"/>
      <point x="308" y="448"/>
      <point x="308" y="-156"/>
      <point x="308" y="-156" type="curve" smooth="yes"/>
      <point x="308" y="-161"/>
      <point x="308" y="-196"/>
      <point x="292" y="-230" type="curve" smooth="yes"/>
      <point x="283" y="-252"/>
      <point x="268" y="-268"/>
      <point x="249" y="-280" type="curve" smooth="yes"/>
      <point x="212" y="-305"/>
      <point x="148" y="-307"/>
      <point x="110" y="-282" type="curve" smooth="yes"/>
      <point x="59" y="-252"/>
      <point x="44" y="-187"/>
      <point x="52" y="-153" type="curve" smooth="yes"/>
      <point x="60" y="-120"/>
      <point x="84" y="-93"/>
      <point x="118" y="-93" type="curve" smooth="yes"/>
      <point x="194" y="-95"/>
      <point x="206" y="-200"/>
      <point x="133" y="-219" type="curve"/>
      <point x="143" y="-230"/>
      <point x="157" y="-236"/>
      <point x="176" y="-236" type="curve" smooth="yes"/>
      <point x="234" y="-237"/>
      <point x="242" y="-190"/>
      <point x="244" y="-157" type="curve" smooth="yes"/>
      <point x="244" y="-156"/>
      <point x="244" y="416"/>
      <point x="244" y="416" type="curve"/>
      <point x="244" y="416"/>
      <point x="230" y="416"/>
      <point x="212" y="416" type="curve" smooth="yes"/>
      <point x="194" y="416"/>
      <point x="180" y="430"/>
      <point x="180" y="448" type="curve" smooth="yes"/>
      <point x="180" y="466"/>
      <point x="194" y="480"/>
      <point x="212" y="480" type="curve" smooth="yes"/>
      <point x="212" y="480"/>
      <point x="276" y="480"/>
      <point x="276" y="480" type="curve" smooth="yes"/>
      <point x="294" y="480"/>
      <point x="308" y="466"/>
    </contour>
    <contour>
      <point x="276" y="668" type="curve" smooth="yes"/>
      <point x="311" y="668"/>
      <point x="340" y="639"/>
      <point x="340" y="604" type="curve" smooth="yes"/>
      <point x="337" y="519"/>
      <point x="215" y="519"/>
      <point x="212" y="604" type="curve" smooth="yes"/>
      <point x="212" y="639"/>
      <point x="241" y="668"/>
    </contour>
  </outline>
</glyph>
<glyph name="k" format="2">
  <advance width="667"/>
  <unicode hex="006B"/>
  <outline>
    <contour>
      <point x="585" y="64" type="curve" smooth="yes"/>
      <point x="607" y="64"/>
      <point x="617" y="48"/>
      <point x="617" y="32" type="curve" smooth="yes"/>
      <point x="617" y="16"/>
      <point x="606" y="0"/>
      <point x="585" y="0" type="curve" smooth="yes"/>
      <point x="537" y="0"/>
      <point x="441" y="0"/>
      <point x="393" y="0" type="curve" smooth="yes"/>
      <point x="371" y="0"/>
      <point x="361" y="16"/>
      <point x="361" y="32" type="curve" smooth="yes"/>
      <point x="362" y="48"/>
      <point x="373" y="64"/>
      <point x="393" y="64" type="curve" smooth="yes"/>
      <point x="393" y="64"/>
      <point x="454" y="64"/>
      <point x="454" y="64" type="curve"/>
      <point x="454" y="64"/>
      <point x="302" y="299"/>
      <point x="302" y="299" type="curve"/>
      <point x="260" y="241"/>
      <point x="215" y="137"/>
      <point x="210" y="122" type="curve"/>
      <point x="210" y="122"/>
      <point x="210" y="64"/>
      <point x="210" y="64" type="curve"/>
      <point x="210" y="64"/>
      <point x="274" y="64"/>
      <point x="274" y="64" type="curve" smooth="yes"/>
      <point x="295" y="64"/>
      <point x="306" y="48"/>
      <point x="306" y="32" type="curve" smooth="yes"/>
      <point x="307" y="16"/>
      <point x="296" y="0"/>
      <point x="274" y="0" type="curve" smooth="yes"/>
      <point x="274" y="0"/>
      <point x="82" y="0"/>
      <point x="82" y="0" type="curve" smooth="yes"/>
      <point x="61" y="0"/>
      <point x="50" y="16"/>
      <point x="50" y="32" type="curve" smooth="yes"/>
      <point x="50" y="48"/>
      <point x="61" y="64"/>
      <point x="82" y="64" type="curve" smooth="yes"/>
      <point x="82" y="64"/>
      <point x="146" y="64"/>
      <point x="146" y="64" type="curve"/>
      <point x="146" y="64"/>
      <point x="146" y="636"/>
      <point x="146" y="636" type="curve"/>
      <point x="146" y="636"/>
      <point x="82" y="636"/>
      <point x="82" y="636" type="curve" smooth="yes"/>
      <point x="64" y="636"/>
      <point x="50" y="650"/>
      <point x="50" y="668" type="curve" smooth="yes"/>
      <point x="50" y="686"/>
      <point x="64" y="700"/>
      <point x="82" y="700" type="curve" smooth="yes"/>
      <point x="82" y="700"/>
      <point x="178" y="700"/>
      <point x="178" y="700" type="curve" smooth="yes"/>
      <point x="196" y="700"/>
      <point x="210" y="686"/>
      <point x="210" y="668" type="curve" smooth="yes"/>
      <point x="210" y="668"/>
      <point x="210" y="272"/>
      <point x="210" y="272" type="curve"/>
      <point x="234" y="329"/>
      <point x="290" y="395"/>
      <point x="339" y="436" type="curve" smooth="yes"/>
      <point x="386" y="476"/>
      <point x="437" y="499"/>
      <point x="489" y="496" type="curve" smooth="yes"/>
      <point x="520" y="494"/>
      <point x="553" y="467"/>
      <point x="553" y="432" type="curve" smooth="yes"/>
      <point x="551" y="356"/>
      <point x="446" y="344"/>
      <point x="427" y="417" type="curve"/>
      <point x="397" y="403"/>
      <point x="369" y="380"/>
      <point x="345" y="354" type="curve"/>
      <point x="345" y="354"/>
      <point x="528" y="64"/>
      <point x="528" y="64" type="curve"/>
      <point x="528" y="64"/>
      <point x="585" y="64"/>
    </contour>
  </outline>
</glyph>
<glyph name="l" format="2">
  <advance width="356"/>
  <unicode hex="006C"/>
  <outline>
    <contour>
      <point x="274" y="64" type="curve" smooth="yes"/>
      <point x="292" y="64"/>
      <point x="306" y="50"/>
      <point x="306" y="32" type="curve" smooth="yes"/>
      <point x="306" y="14"/>
      <point x="292" y="0"/>
      <point x="274" y="0" type="curve" smooth="yes"/>
      <point x="274" y="0"/>
      <point x="82" y="0"/>
      <point x="82" y="0" type="curve" smooth="yes"/>
      <point x="61" y="0"/>
      <point x="50" y="16"/>
      <point x="50" y="32" type="curve" smooth="yes"/>
      <point x="50" y="48"/>
      <point x="61" y="64"/>
      <point x="82" y="64" type="curve" smooth="yes"/>
      <point x="82" y="64"/>
      <point x="146" y="64"/>
      <point x="146" y="64" type="curve"/>
      <point x="146" y="64"/>
      <point x="146" y="636"/>
      <point x="146" y="636" type="curve"/>
      <point x="146" y="636"/>
      <point x="132" y="636"/>
      <point x="114" y="636" type="curve" smooth="yes"/>
      <point x="96" y="636"/>
      <point x="82" y="650"/>
      <point x="82" y="668" type="curve" smooth="yes"/>
      <point x="82" y="686"/>
      <point x="96" y="700"/>
      <point x="114" y="700" type="curve" smooth="yes"/>
      <point x="114" y="700"/>
      <point x="178" y="700"/>
      <point x="178" y="700" type="curve" smooth="yes"/>
      <point x="196" y="700"/>
      <point x="210" y="686"/>
      <point x="210" y="668" type="curve" smooth="yes"/>
      <point x="210" y="668"/>
      <point x="210" y="64"/>
      <point x="210" y="64" type="curve"/>
      <point x="210" y="64"/>
      <point x="274" y="64"/>
    </contour>
  </outline>
</glyph>
<glyph name="m" format="2">
  <advance width="978"/>
  <unicode hex="006D"/>
  <outline>
    <contour>
      <point x="896" y="64" type="curve" smooth="yes"/>
      <point x="917" y="64"/>
      <point x="928" y="47"/>
      <point x="928" y="32" type="curve" smooth="yes"/>
      <point x="928" y="16"/>
      <point x="917" y="0"/>
      <point x="896" y="0" type="curve" smooth="yes"/>
      <point x="896" y="0"/>
      <point x="704" y="0"/>
      <point x="704" y="0" type="curve" smooth="yes"/>
      <point x="683" y="0"/>
      <point x="672" y="16"/>
      <point x="672" y="32" type="curve" smooth="yes"/>
      <point x="672" y="47"/>
      <point x="683" y="64"/>
      <point x="704" y="64" type="curve" smooth="yes"/>
      <point x="704" y="64"/>
      <point x="768" y="64"/>
      <point x="768" y="64" type="curve"/>
      <point x="768" y="64"/>
      <point x="768" y="319"/>
      <point x="768" y="319" type="curve" smooth="yes"/>
      <point x="768" y="365"/>
      <point x="763" y="418"/>
      <point x="719" y="429" type="curve" smooth="yes"/>
      <point x="628" y="449"/>
      <point x="551" y="335"/>
      <point x="521" y="263" type="curve"/>
      <point x="521" y="263"/>
      <point x="521" y="64"/>
      <point x="521" y="64" type="curve"/>
      <point x="521" y="64"/>
      <point x="585" y="64"/>
      <point x="585" y="64" type="curve" smooth="yes"/>
      <point x="606" y="64"/>
      <point x="617" y="48"/>
      <point x="617" y="32" type="curve" smooth="yes"/>
      <point x="617" y="16"/>
      <point x="606" y="0"/>
      <point x="585" y="0" type="curve" smooth="yes"/>
      <point x="585" y="0"/>
      <point x="393" y="0"/>
      <point x="393" y="0" type="curve" smooth="yes"/>
      <point x="372" y="0"/>
      <point x="361" y="16"/>
      <point x="361" y="32" type="curve" smooth="yes"/>
      <point x="361" y="47"/>
      <point x="372" y="64"/>
      <point x="393" y="64" type="curve" smooth="yes"/>
      <point x="393" y="64"/>
      <point x="457" y="64"/>
      <point x="457" y="64" type="curve"/>
      <point x="457" y="64"/>
      <point x="457" y="269"/>
      <point x="457" y="271" type="curve" smooth="yes"/>
      <point x="456" y="323"/>
      <point x="468" y="414"/>
      <point x="408" y="429" type="curve" smooth="yes"/>
      <point x="317" y="448"/>
      <point x="240" y="335"/>
      <point x="210" y="261" type="curve"/>
      <point x="210" y="261"/>
      <point x="210" y="64"/>
      <point x="210" y="64" type="curve"/>
      <point x="210" y="64"/>
      <point x="274" y="64"/>
      <point x="274" y="64" type="curve" smooth="yes"/>
      <point x="295" y="64"/>
      <point x="306" y="47"/>
      <point x="306" y="32" type="curve" smooth="yes"/>
      <point x="306" y="16"/>
      <point x="295" y="0"/>
      <point x="274" y="0" type="curve" smooth="yes"/>
      <point x="274" y="0"/>
      <point x="82" y="0"/>
      <point x="82" y="0" type="curve" smooth="yes"/>
      <point x="61" y="0"/>
      <point x="50" y="16"/>
      <point x="50" y="32" type="curve" smooth="yes"/>
      <point x="50" y="47"/>
      <point x="61" y="64"/>
      <point x="82" y="64" type="curve" smooth="yes"/>
      <point x="82" y="64"/>
      <point x="146" y="64"/>
      <point x="146" y="64" type="curve"/>
      <point x="146" y="64"/>
      <point x="146" y="416"/>
      <point x="146" y="416" type="curve"/>
      <point x="146" y="416"/>
      <point x="132" y="416"/>
      <point x="114" y="416" type="curve" smooth="yes"/>
      <point x="96" y="416"/>
      <point x="82" y="430"/>
      <point x="82" y="448" type="curve" smooth="yes"/>
      <point x="82" y="465"/>
      <point x="96" y="480"/>
      <point x="114" y="480" type="curve" smooth="yes"/>
      <point x="114" y="480"/>
      <point x="178" y="480"/>
      <point x="178" y="480" type="curve" smooth="yes"/>
      <point x="195" y="480"/>
      <point x="210" y="465"/>
      <point x="210" y="448" type="curve" smooth="yes"/>
      <point x="210" y="448"/>
      <point x="210" y="389"/>
      <point x="210" y="389" type="curve"/>
      <point x="269" y="468"/>
      <point x="341" y="501"/>
      <point x="401" y="495" type="curve" smooth="yes"/>
      <point x="458" y="490"/>
      <point x="504" y="450"/>
      <point x="516" y="383" type="curve"/>
      <point x="523" y="392"/>
      <point x="581" y="472"/>
      <point x="654" y="490" type="curve" smooth="yes"/>
      <point x="746" y="513"/>
      <point x="802" y="465"/>
      <point x="821" y="405" type="curve" smooth="yes"/>
      <point x="832" y="372"/>
      <point x="832" y="337"/>
      <point x="832" y="319" type="curve" smooth="yes"/>
      <point x="832" y="319"/>
      <point x="832" y="64"/>
      <point x="832" y="64" type="curve"/>
      <point x="832" y="64"/>
      <point x="896" y="64"/>
    </contour>
  </outline>
</glyph>
<glyph name="n" format="2">
  <advance width="667"/>
  <unicode hex="006E"/>
  <outline>
    <contour>
      <point x="585" y="63" type="curve" smooth="yes"/>
      <point x="606" y="63"/>
      <point x="617" y="47"/>
      <point x="617" y="31" type="curve" smooth="yes"/>
      <point x="617" y="16"/>
      <point x="605" y="-1"/>
      <point x="585" y="-1" type="curve" smooth="yes"/>
      <point x="585" y="-1"/>
      <point x="393" y="-1"/>
      <point x="393" y="-1" type="curve" smooth="yes"/>
      <point x="372" y="-1"/>
      <point x="361" y="16"/>
      <point x="361" y="31" type="curve" smooth="yes"/>
      <point x="361" y="47"/>
      <point x="372" y="63"/>
      <point x="393" y="63" type="curve" smooth="yes"/>
      <point x="393" y="63"/>
      <point x="457" y="63"/>
      <point x="457" y="63" type="curve"/>
      <point x="457" y="63"/>
      <point x="457" y="318"/>
      <point x="457" y="318" type="curve" smooth="yes"/>
      <point x="457" y="364"/>
      <point x="452" y="418"/>
      <point x="408" y="429" type="curve" smooth="yes"/>
      <point x="317" y="448"/>
      <point x="240" y="334"/>
      <point x="210" y="261" type="curve"/>
      <point x="210" y="261"/>
      <point x="210" y="63"/>
      <point x="210" y="63" type="curve"/>
      <point x="210" y="63"/>
      <point x="274" y="63"/>
      <point x="274" y="63" type="curve" smooth="yes"/>
      <point x="295" y="63"/>
      <point x="306" y="47"/>
      <point x="306" y="31" type="curve" smooth="yes"/>
      <point x="306" y="16"/>
      <point x="295" y="-1"/>
      <point x="274" y="-1" type="curve" smooth="yes"/>
      <point x="274" y="-1"/>
      <point x="82" y="-1"/>
      <point x="82" y="-1" type="curve" smooth="yes"/>
      <point x="62" y="-1"/>
      <point x="50" y="16"/>
      <point x="50" y="31" type="curve" smooth="yes"/>
      <point x="50" y="47"/>
      <point x="61" y="63"/>
      <point x="82" y="63" type="curve" smooth="yes"/>
      <point x="82" y="63"/>
      <point x="146" y="63"/>
      <point x="146" y="63" type="curve"/>
      <point x="146" y="63"/>
      <point x="146" y="415"/>
      <point x="146" y="415" type="curve"/>
      <point x="146" y="415"/>
      <point x="132" y="415"/>
      <point x="114" y="415" type="curve" smooth="yes"/>
      <point x="96" y="415"/>
      <point x="82" y="429"/>
      <point x="82" y="447" type="curve" smooth="yes"/>
      <point x="82" y="465"/>
      <point x="96" y="479"/>
      <point x="114" y="479" type="curve" smooth="yes"/>
      <point x="114" y="479"/>
      <point x="178" y="479"/>
      <point x="178" y="479" type="curve" smooth="yes"/>
      <point x="195" y="479"/>
      <point x="210" y="465"/>
      <point x="210" y="447" type="curve" smooth="yes"/>
      <point x="210" y="447"/>
      <point x="210" y="388"/>
      <point x="210" y="388" type="curve"/>
      <point x="262" y="458"/>
      <point x="324" y="492"/>
      <point x="379" y="496" type="curve" smooth="yes"/>
      <point x="439" y="499"/>
      <point x="490" y="467"/>
      <point x="510" y="405" type="curve" smooth="yes"/>
      <point x="521" y="371"/>
      <point x="521" y="337"/>
      <point x="521" y="318" type="curve" smooth="yes"/>
      <point x="521" y="318"/>
      <point x="521" y="63"/>
      <point x="521" y="63" type="curve"/>
      <point x="521" y="63"/>
      <point x="585" y="63"/>
    </contour>
  </outline>
</glyph>
<glyph name="o" format="2">
  <advance width="612"/>
  <unicode hex="006F"/>
  <outline>
    <contour>
      <point x="306" y="-16" type="curve" smooth="yes"/>
      <point x="238" y="-16"/>
      <point x="173" y="11"/>
      <point x="125" y="59" type="curve" smooth="yes"/>
      <point x="77" y="107"/>
      <point x="50" y="172"/>
      <point x="50" y="240" type="curve" smooth="yes"/>
      <point x="50" y="308"/>
      <point x="77" y="373"/>
      <point x="125" y="421" type="curve" smooth="yes"/>
      <point x="173" y="469"/>
      <point x="238" y="496"/>
      <point x="306" y="496" type="curve" smooth="yes"/>
      <point x="374" y="496"/>
      <point x="439" y="469"/>
      <point x="487" y="421" type="curve" smooth="yes"/>
      <point x="535" y="373"/>
      <point x="562" y="308"/>
      <point x="562" y="240" type="curve" smooth="yes"/>
      <point x="562" y="172"/>
      <point x="535" y="107"/>
      <point x="487" y="59" type="curve" smooth="yes"/>
      <point x="439" y="11"/>
      <point x="374" y="-16"/>
    </contour>
    <contour>
      <point x="306" y="432" type="curve" smooth="yes"/>
      <point x="200" y="432"/>
      <point x="114" y="346"/>
      <point x="114" y="240" type="curve" smooth="yes"/>
      <point x="114" y="134"/>
      <point x="200" y="48"/>
      <point x="306" y="48" type="curve" smooth="yes"/>
      <point x="412" y="48"/>
      <point x="498" y="134"/>
      <point x="498" y="240" type="curve" smooth="yes"/>
      <point x="498" y="346"/>
      <point x="412" y="432"/>
    </contour>
  </outline>
</glyph>
<glyph name="p" format="2">
  <advance width="657"/>
  <unicode hex="0070"/>
  <outline>
    <contour>
      <point x="539" y="421" type="curve" smooth="yes"/>
      <point x="630" y="327"/>
      <point x="630" y="154"/>
      <point x="539" y="60" type="curve" smooth="yes"/>
      <point x="494" y="11"/>
      <point x="429" y="-15"/>
      <point x="363" y="-15" type="curve" smooth="yes"/>
      <point x="307" y="-16"/>
      <point x="252" y="2"/>
      <point x="210" y="40" type="curve"/>
      <point x="210" y="40"/>
      <point x="210" y="-236"/>
      <point x="210" y="-236" type="curve"/>
      <point x="210" y="-236"/>
      <point x="274" y="-236"/>
      <point x="274" y="-236" type="curve" smooth="yes"/>
      <point x="295" y="-236"/>
      <point x="306" y="-252"/>
      <point x="306" y="-268" type="curve" smooth="yes"/>
      <point x="306" y="-283"/>
      <point x="295" y="-300"/>
      <point x="274" y="-300" type="curve" smooth="yes"/>
      <point x="274" y="-300"/>
      <point x="82" y="-300"/>
      <point x="82" y="-300" type="curve" smooth="yes"/>
      <point x="61" y="-300"/>
      <point x="50" y="-283"/>
      <point x="50" y="-268" type="curve" smooth="yes"/>
      <point x="50" y="-252"/>
      <point x="61" y="-236"/>
      <point x="82" y="-236" type="curve" smooth="yes"/>
      <point x="82" y="-236"/>
      <point x="146" y="-236"/>
      <point x="146" y="-236" type="curve"/>
      <point x="146" y="-236"/>
      <point x="146" y="416"/>
      <point x="146" y="416" type="curve"/>
      <point x="146" y="416"/>
      <point x="114" y="416"/>
      <point x="114" y="416" type="curve" smooth="yes"/>
      <point x="71" y="418"/>
      <point x="71" y="479"/>
      <point x="114" y="480" type="curve" smooth="yes"/>
      <point x="114" y="480"/>
      <point x="178" y="480"/>
      <point x="178" y="480" type="curve" smooth="yes"/>
      <point x="196" y="480"/>
      <point x="210" y="466"/>
      <point x="210" y="448" type="curve" smooth="yes"/>
      <point x="210" y="448"/>
      <point x="210" y="441"/>
      <point x="210" y="441" type="curve"/>
      <point x="255" y="482"/>
      <point x="317" y="499"/>
      <point x="377" y="496" type="curve" smooth="yes"/>
      <point x="438" y="492"/>
      <point x="498" y="466"/>
    </contour>
    <contour>
      <point x="362" y="48" type="curve" smooth="yes"/>
      <point x="466" y="48"/>
      <point x="544" y="131"/>
      <point x="544" y="240" type="curve" smooth="yes"/>
      <point x="544" y="325"/>
      <point x="500" y="385"/>
      <point x="443" y="413" type="curve" smooth="yes"/>
      <point x="365" y="452"/>
      <point x="262" y="433"/>
      <point x="210" y="343" type="curve"/>
      <point x="210" y="343"/>
      <point x="210" y="137"/>
      <point x="210" y="137" type="curve"/>
      <point x="236" y="95"/>
      <point x="283" y="48"/>
    </contour>
  </outline>
</glyph>
<glyph name="q" format="2">
  <advance width="658"/>
  <unicode hex="0071"/>
  <outline>
    <contour>
      <point x="576" y="-237" type="curve" smooth="yes"/>
      <point x="597" y="-237"/>
      <point x="608" y="-253"/>
      <point x="608" y="-269" type="curve" smooth="yes"/>
      <point x="608" y="-284"/>
      <point x="597" y="-301"/>
      <point x="576" y="-301" type="curve" smooth="yes"/>
      <point x="576" y="-301"/>
      <point x="384" y="-301"/>
      <point x="384" y="-301" type="curve" smooth="yes"/>
      <point x="363" y="-301"/>
      <point x="352" y="-284"/>
      <point x="352" y="-269" type="curve" smooth="yes"/>
      <point x="352" y="-253"/>
      <point x="363" y="-237"/>
      <point x="384" y="-237" type="curve" smooth="yes"/>
      <point x="384" y="-237"/>
      <point x="448" y="-237"/>
      <point x="448" y="-237" type="curve"/>
      <point x="448" y="-237"/>
      <point x="448" y="39"/>
      <point x="448" y="39" type="curve"/>
      <point x="357" y="-36"/>
      <point x="244" y="-31"/>
      <point x="162" y="24" type="curve" smooth="yes"/>
      <point x="95" y="68"/>
      <point x="49" y="145"/>
      <point x="50" y="239" type="curve" smooth="yes"/>
      <point x="49" y="348"/>
      <point x="111" y="434"/>
      <point x="195" y="473" type="curve" smooth="yes"/>
      <point x="272" y="510"/>
      <point x="368" y="505"/>
      <point x="448" y="440" type="curve"/>
      <point x="448" y="440"/>
      <point x="448" y="447"/>
      <point x="448" y="447" type="curve" smooth="yes"/>
      <point x="448" y="465"/>
      <point x="462" y="479"/>
      <point x="480" y="479" type="curve" smooth="yes"/>
      <point x="480" y="479"/>
      <point x="544" y="479"/>
      <point x="544" y="479" type="curve" smooth="yes"/>
      <point x="586" y="478"/>
      <point x="586" y="417"/>
      <point x="544" y="415" type="curve" smooth="yes"/>
      <point x="544" y="415"/>
      <point x="512" y="415"/>
      <point x="512" y="415" type="curve"/>
      <point x="512" y="415"/>
      <point x="512" y="351"/>
      <point x="512" y="351" type="curve"/>
      <point x="512" y="351"/>
      <point x="512" y="351"/>
      <point x="512" y="351" type="curve"/>
      <point x="512" y="351"/>
      <point x="512" y="-237"/>
      <point x="512" y="-237" type="curve"/>
      <point x="512" y="-237"/>
      <point x="576" y="-237"/>
    </contour>
    <contour>
      <point x="296" y="47" type="curve" smooth="yes"/>
      <point x="375" y="47"/>
      <point x="422" y="94"/>
      <point x="448" y="136" type="curve"/>
      <point x="448" y="136"/>
      <point x="448" y="343"/>
      <point x="448" y="343" type="curve"/>
      <point x="405" y="417"/>
      <point x="327" y="442"/>
      <point x="257" y="427" type="curve" smooth="yes"/>
      <point x="181" y="410"/>
      <point x="114" y="344"/>
      <point x="114" y="239" type="curve" smooth="yes"/>
      <point x="114" y="130"/>
      <point x="192" y="47"/>
    </contour>
  </outline>
</glyph>
<glyph name="r" format="2">
  <advance width="660"/>
  <unicode hex="0072"/>
  <outline>
    <contour>
      <point x="584" y="443" type="curve" smooth="yes"/>
      <point x="605" y="417"/>
      <point x="614" y="383"/>
      <point x="608" y="355" type="curve" smooth="yes"/>
      <point x="602" y="325"/>
      <point x="576" y="303"/>
      <point x="545" y="303" type="curve" smooth="yes"/>
      <point x="481" y="303"/>
      <point x="458" y="387"/>
      <point x="511" y="421" type="curve"/>
      <point x="496" y="429"/>
      <point x="475" y="434"/>
      <point x="444" y="432" type="curve" smooth="yes"/>
      <point x="384" y="427"/>
      <point x="334" y="373"/>
      <point x="306" y="335" type="curve"/>
      <point x="306" y="335"/>
      <point x="306" y="64"/>
      <point x="306" y="64" type="curve"/>
      <point x="306" y="64"/>
      <point x="466" y="64"/>
      <point x="466" y="64" type="curve" smooth="yes"/>
      <point x="487" y="64"/>
      <point x="498" y="47"/>
      <point x="498" y="32" type="curve" smooth="yes"/>
      <point x="498" y="16"/>
      <point x="487" y="0"/>
      <point x="466" y="0" type="curve" smooth="yes"/>
      <point x="466" y="0"/>
      <point x="82" y="0"/>
      <point x="82" y="0" type="curve" smooth="yes"/>
      <point x="60" y="0"/>
      <point x="50" y="16"/>
      <point x="50" y="32" type="curve" smooth="yes"/>
      <point x="50" y="47"/>
      <point x="60" y="64"/>
      <point x="82" y="64" type="curve" smooth="yes"/>
      <point x="82" y="64"/>
      <point x="242" y="64"/>
      <point x="242" y="64" type="curve"/>
      <point x="242" y="64"/>
      <point x="242" y="416"/>
      <point x="242" y="416" type="curve"/>
      <point x="242" y="416"/>
      <point x="82" y="416"/>
      <point x="82" y="416" type="curve" smooth="yes"/>
      <point x="61" y="416"/>
      <point x="50" y="432"/>
      <point x="50" y="448" type="curve" smooth="yes"/>
      <point x="50" y="463"/>
      <point x="61" y="480"/>
      <point x="82" y="480" type="curve" smooth="yes"/>
      <point x="82" y="480"/>
      <point x="274" y="480"/>
      <point x="274" y="480" type="curve" smooth="yes"/>
      <point x="292" y="480"/>
      <point x="306" y="466"/>
      <point x="306" y="448" type="curve" smooth="yes"/>
      <point x="306" y="448"/>
      <point x="306" y="431"/>
      <point x="306" y="431" type="curve"/>
      <point x="339" y="462"/>
      <point x="385" y="492"/>
      <point x="440" y="495" type="curve" smooth="yes"/>
      <point x="497" y="499"/>
      <point x="549" y="485"/>
    </contour>
  </outline>
</glyph>
<glyph name="s" format="2">
  <advance width="503"/>
  <unicode hex="0073"/>
  <outline>
    <contour>
      <point x="452" y="136" type="curve"/>
      <point x="461" y="46"/>
      <point x="393" y="-16"/>
      <point x="281" y="-16" type="curve" smooth="yes"/>
      <point x="273" y="-16"/>
      <point x="266" y="-16"/>
      <point x="258" y="-15" type="curve" smooth="yes"/>
      <point x="195" y="-11"/>
      <point x="148" y="13"/>
      <point x="114" y="39" type="curve"/>
      <point x="114" y="39"/>
      <point x="114" y="16"/>
      <point x="114" y="16" type="curve" smooth="yes"/>
      <point x="113" y="-6"/>
      <point x="98" y="-16"/>
      <point x="82" y="-16" type="curve" smooth="yes"/>
      <point x="66" y="-16"/>
      <point x="51" y="-6"/>
      <point x="50" y="16" type="curve" smooth="yes"/>
      <point x="50" y="16"/>
      <point x="50" y="112"/>
      <point x="50" y="112" type="curve" smooth="yes"/>
      <point x="50" y="141"/>
      <point x="87" y="155"/>
      <point x="106" y="132" type="curve"/>
      <point x="106" y="132"/>
      <point x="122" y="114"/>
      <point x="149" y="93" type="curve" smooth="yes"/>
      <point x="182" y="66"/>
      <point x="221" y="51"/>
      <point x="262" y="49" type="curve" smooth="yes"/>
      <point x="329" y="44"/>
      <point x="394" y="64"/>
      <point x="388" y="127" type="curve" smooth="yes"/>
      <point x="382" y="171"/>
      <point x="328" y="204"/>
      <point x="246" y="214" type="curve" smooth="yes"/>
      <point x="190" y="221"/>
      <point x="148" y="234"/>
      <point x="117" y="254" type="curve" smooth="yes"/>
      <point x="81" y="277"/>
      <point x="61" y="310"/>
      <point x="58" y="350" type="curve" smooth="yes"/>
      <point x="54" y="451"/>
      <point x="149" y="506"/>
      <point x="252" y="494" type="curve" smooth="yes"/>
      <point x="306" y="489"/>
      <point x="348" y="464"/>
      <point x="379" y="436" type="curve"/>
      <point x="379" y="436"/>
      <point x="379" y="448"/>
      <point x="379" y="448" type="curve" smooth="yes"/>
      <point x="380" y="469"/>
      <point x="395" y="479"/>
      <point x="411" y="479" type="curve" smooth="yes"/>
      <point x="427" y="479"/>
      <point x="442" y="469"/>
      <point x="443" y="448" type="curve" smooth="yes"/>
      <point x="443" y="448"/>
      <point x="443" y="352"/>
      <point x="443" y="352" type="curve" smooth="yes"/>
      <point x="443" y="320"/>
      <point x="402" y="308"/>
      <point x="385" y="333" type="curve"/>
      <point x="385" y="333"/>
      <point x="332" y="423"/>
      <point x="246" y="431" type="curve" smooth="yes"/>
      <point x="183" y="437"/>
      <point x="121" y="415"/>
      <point x="122" y="354" type="curve" smooth="yes"/>
      <point x="123" y="334"/>
      <point x="133" y="320"/>
      <point x="151" y="307" type="curve" smooth="yes"/>
      <point x="174" y="293"/>
      <point x="208" y="283"/>
      <point x="254" y="277" type="curve" smooth="yes"/>
      <point x="346" y="266"/>
      <point x="437" y="226"/>
    </contour>
  </outline>
</glyph>
<glyph name="t" format="2">
  <advance width="548"/>
  <unicode hex="0074"/>
  <outline>
    <contour>
      <point x="498" y="147" type="curve" smooth="yes"/>
      <point x="500" y="92"/>
      <point x="480" y="41"/>
      <point x="440" y="18" type="curve" smooth="yes"/>
      <point x="401" y="-7"/>
      <point x="338" y="-5"/>
      <point x="300" y="20" type="curve" smooth="yes"/>
      <point x="254" y="47"/>
      <point x="241" y="113"/>
      <point x="242" y="144" type="curve" smooth="yes"/>
      <point x="242" y="144"/>
      <point x="242" y="416"/>
      <point x="242" y="416" type="curve"/>
      <point x="242" y="416"/>
      <point x="82" y="416"/>
      <point x="82" y="416" type="curve" smooth="yes"/>
      <point x="39" y="418"/>
      <point x="39" y="478"/>
      <point x="82" y="480" type="curve" smooth="yes"/>
      <point x="82" y="480"/>
      <point x="242" y="480"/>
      <point x="242" y="480" type="curve"/>
      <point x="242" y="480"/>
      <point x="242" y="652"/>
      <point x="242" y="652" type="curve" smooth="yes"/>
      <point x="244" y="695"/>
      <point x="304" y="695"/>
      <point x="306" y="652" type="curve" smooth="yes"/>
      <point x="306" y="652"/>
      <point x="306" y="480"/>
      <point x="306" y="480" type="curve"/>
      <point x="306" y="480"/>
      <point x="466" y="480"/>
      <point x="466" y="480" type="curve" smooth="yes"/>
      <point x="508" y="478"/>
      <point x="508" y="418"/>
      <point x="466" y="416" type="curve" smooth="yes"/>
      <point x="466" y="416"/>
      <point x="306" y="416"/>
      <point x="306" y="416" type="curve"/>
      <point x="306" y="416"/>
      <point x="306" y="212"/>
      <point x="306" y="144" type="curve" smooth="yes"/>
      <point x="306" y="81"/>
      <point x="336" y="64"/>
      <point x="374" y="64" type="curve" smooth="yes"/>
      <point x="409" y="64"/>
      <point x="434" y="95"/>
      <point x="434" y="145" type="curve" smooth="yes"/>
      <point x="434" y="163"/>
      <point x="447" y="178"/>
      <point x="465" y="178" type="curve" smooth="yes"/>
      <point x="482" y="179"/>
      <point x="497" y="165"/>
    </contour>
  </outline>
</glyph>
<glyph name="u" format="2">
  <advance width="696"/>
  <unicode hex="0075"/>
  <outline>
    <contour>
      <point x="614" y="126" type="curve" smooth="yes"/>
      <point x="632" y="126"/>
      <point x="646" y="112"/>
      <point x="646" y="94" type="curve" smooth="yes"/>
      <point x="644" y="26"/>
      <point x="593" y="-13"/>
      <point x="541" y="-16" type="curve" smooth="yes"/>
      <point x="495" y="-18"/>
      <point x="449" y="6"/>
      <point x="430" y="61" type="curve"/>
      <point x="375" y="0"/>
      <point x="289" y="-31"/>
      <point x="211" y="-12" type="curve" smooth="yes"/>
      <point x="169" y="-1"/>
      <point x="139" y="29"/>
      <point x="124" y="74" type="curve" smooth="yes"/>
      <point x="114" y="108"/>
      <point x="114" y="142"/>
      <point x="114" y="160" type="curve" smooth="yes"/>
      <point x="114" y="160"/>
      <point x="114" y="416"/>
      <point x="114" y="416" type="curve"/>
      <point x="114" y="416"/>
      <point x="103" y="416"/>
      <point x="82" y="416" type="curve" smooth="yes"/>
      <point x="61" y="416"/>
      <point x="50" y="432"/>
      <point x="50" y="448" type="curve" smooth="yes"/>
      <point x="50" y="464"/>
      <point x="61" y="480"/>
      <point x="82" y="480" type="curve" smooth="yes"/>
      <point x="82" y="480"/>
      <point x="146" y="480"/>
      <point x="146" y="480" type="curve" smooth="yes"/>
      <point x="163" y="480"/>
      <point x="178" y="466"/>
      <point x="178" y="448" type="curve" smooth="yes"/>
      <point x="178" y="448"/>
      <point x="178" y="160"/>
      <point x="178" y="160" type="curve" smooth="yes"/>
      <point x="178" y="115"/>
      <point x="183" y="61"/>
      <point x="226" y="50" type="curve" smooth="yes"/>
      <point x="269" y="40"/>
      <point x="321" y="52"/>
      <point x="361" y="83" type="curve" smooth="yes"/>
      <point x="403" y="116"/>
      <point x="425" y="164"/>
      <point x="425" y="216" type="curve" smooth="yes"/>
      <point x="425" y="216"/>
      <point x="425" y="416"/>
      <point x="425" y="416" type="curve"/>
      <point x="425" y="416"/>
      <point x="393" y="416"/>
      <point x="393" y="416" type="curve" smooth="yes"/>
      <point x="372" y="416"/>
      <point x="361" y="432"/>
      <point x="361" y="448" type="curve" smooth="yes"/>
      <point x="361" y="464"/>
      <point x="372" y="480"/>
      <point x="393" y="480" type="curve" smooth="yes"/>
      <point x="393" y="480"/>
      <point x="457" y="480"/>
      <point x="457" y="480" type="curve" smooth="yes"/>
      <point x="475" y="480"/>
      <point x="489" y="466"/>
      <point x="489" y="448" type="curve" smooth="yes"/>
      <point x="489" y="448"/>
      <point x="489" y="91"/>
      <point x="489" y="91" type="curve" smooth="yes"/>
      <point x="491" y="67"/>
      <point x="511" y="48"/>
      <point x="535" y="48" type="curve" smooth="yes"/>
      <point x="561" y="48"/>
      <point x="582" y="69"/>
      <point x="582" y="94" type="curve" smooth="yes"/>
      <point x="582" y="112"/>
      <point x="596" y="126"/>
    </contour>
  </outline>
</glyph>
<glyph name="v" format="2">
  <advance width="667"/>
  <unicode hex="0076"/>
  <outline>
    <contour>
      <point x="585" y="480" type="curve" smooth="yes"/>
      <point x="606" y="480"/>
      <point x="617" y="464"/>
      <point x="617" y="448" type="curve" smooth="yes"/>
      <point x="617" y="432"/>
      <point x="606" y="416"/>
      <point x="585" y="416" type="curve" smooth="yes"/>
      <point x="585" y="416"/>
      <point x="525" y="416"/>
      <point x="525" y="416" type="curve"/>
      <point x="525" y="416"/>
      <point x="363" y="20"/>
      <point x="363" y="20" type="curve" smooth="yes"/>
      <point x="359" y="8"/>
      <point x="347" y="0"/>
      <point x="334" y="0" type="curve" smooth="yes"/>
      <point x="321" y="0"/>
      <point x="309" y="8"/>
      <point x="304" y="20" type="curve" smooth="yes"/>
      <point x="304" y="20"/>
      <point x="141" y="416"/>
      <point x="141" y="416" type="curve"/>
      <point x="141" y="416"/>
      <point x="82" y="416"/>
      <point x="82" y="416" type="curve" smooth="yes"/>
      <point x="61" y="416"/>
      <point x="50" y="432"/>
      <point x="50" y="448" type="curve" smooth="yes"/>
      <point x="50" y="464"/>
      <point x="61" y="480"/>
      <point x="82" y="480" type="curve" smooth="yes"/>
      <point x="82" y="480"/>
      <point x="274" y="480"/>
      <point x="274" y="480" type="curve" smooth="yes"/>
      <point x="295" y="480"/>
      <point x="306" y="464"/>
      <point x="306" y="448" type="curve" smooth="yes"/>
      <point x="306" y="432"/>
      <point x="295" y="416"/>
      <point x="274" y="416" type="curve" smooth="yes"/>
      <point x="274" y="416"/>
      <point x="211" y="416"/>
      <point x="211" y="416" type="curve"/>
      <point x="211" y="416"/>
      <point x="334" y="116"/>
      <point x="334" y="116" type="curve"/>
      <point x="334" y="116"/>
      <point x="456" y="416"/>
      <point x="456" y="416" type="curve"/>
      <point x="456" y="416"/>
      <point x="393" y="416"/>
      <point x="393" y="416" type="curve" smooth="yes"/>
      <point x="372" y="416"/>
      <point x="361" y="432"/>
      <point x="361" y="448" type="curve" smooth="yes"/>
      <point x="361" y="464"/>
      <point x="372" y="480"/>
      <point x="393" y="480" type="curve" smooth="yes"/>
      <point x="393" y="480"/>
      <point x="585" y="480"/>
    </contour>
  </outline>
</glyph>
<glyph name="w" format="2">
  <advance width="898"/>
  <unicode hex="0077"/>
  <outline>
    <contour>
      <point x="816" y="480" type="curve" smooth="yes"/>
      <point x="837" y="480"/>
      <point x="848" y="464"/>
      <point x="848" y="448" type="curve" smooth="yes"/>
      <point x="848" y="432"/>
      <point x="836" y="416"/>
      <point x="816" y="416" type="curve" smooth="yes"/>
      <point x="816" y="416"/>
      <point x="754" y="416"/>
      <point x="754" y="416" type="curve"/>
      <point x="754" y="416"/>
      <point x="594" y="20"/>
      <point x="594" y="20" type="curve" smooth="yes"/>
      <point x="590" y="8"/>
      <point x="578" y="0"/>
      <point x="565" y="0" type="curve" smooth="yes"/>
      <point x="565" y="0"/>
      <point x="565" y="0"/>
      <point x="564" y="0" type="curve" smooth="yes"/>
      <point x="551" y="0"/>
      <point x="539" y="8"/>
      <point x="535" y="21" type="curve" smooth="yes"/>
      <point x="535" y="21"/>
      <point x="453" y="240"/>
      <point x="453" y="240" type="curve"/>
      <point x="453" y="240"/>
      <point x="363" y="20"/>
      <point x="363" y="20" type="curve" smooth="yes"/>
      <point x="359" y="8"/>
      <point x="347" y="0"/>
      <point x="334" y="0" type="curve" smooth="yes"/>
      <point x="321" y="0"/>
      <point x="309" y="8"/>
      <point x="304" y="20" type="curve" smooth="yes"/>
      <point x="304" y="20"/>
      <point x="143" y="416"/>
      <point x="143" y="416" type="curve"/>
      <point x="143" y="416"/>
      <point x="82" y="416"/>
      <point x="82" y="416" type="curve" smooth="yes"/>
      <point x="61" y="416"/>
      <point x="50" y="432"/>
      <point x="50" y="448" type="curve" smooth="yes"/>
      <point x="50" y="463"/>
      <point x="61" y="480"/>
      <point x="82" y="480" type="curve" smooth="yes"/>
      <point x="82" y="480"/>
      <point x="274" y="480"/>
      <point x="274" y="480" type="curve" smooth="yes"/>
      <point x="295" y="480"/>
      <point x="306" y="464"/>
      <point x="306" y="448" type="curve" smooth="yes"/>
      <point x="306" y="432"/>
      <point x="295" y="416"/>
      <point x="274" y="416" type="curve" smooth="yes"/>
      <point x="274" y="416"/>
      <point x="212" y="416"/>
      <point x="212" y="416" type="curve"/>
      <point x="212" y="416"/>
      <point x="334" y="117"/>
      <point x="334" y="117" type="curve"/>
      <point x="334" y="117"/>
      <point x="424" y="340"/>
      <point x="424" y="340" type="curve" smooth="yes"/>
      <point x="429" y="352"/>
      <point x="441" y="360"/>
      <point x="454" y="360" type="curve" smooth="yes"/>
      <point x="467" y="360"/>
      <point x="479" y="352"/>
      <point x="484" y="339" type="curve" smooth="yes"/>
      <point x="484" y="339"/>
      <point x="566" y="120"/>
      <point x="566" y="120" type="curve"/>
      <point x="566" y="120"/>
      <point x="685" y="416"/>
      <point x="685" y="416" type="curve"/>
      <point x="685" y="416"/>
      <point x="624" y="416"/>
      <point x="624" y="416" type="curve" smooth="yes"/>
      <point x="604" y="416"/>
      <point x="592" y="432"/>
      <point x="592" y="448" type="curve" smooth="yes"/>
      <point x="592" y="464"/>
      <point x="603" y="480"/>
      <point x="624" y="480" type="curve" smooth="yes"/>
      <point x="624" y="480"/>
      <point x="816" y="480"/>
    </contour>
  </outline>
</glyph>
<glyph name="x" format="2">
  <advance width="667"/>
  <unicode hex="0078"/>
  <outline>
    <contour>
      <point x="585" y="64" type="curve" smooth="yes"/>
      <point x="606" y="64"/>
      <point x="617" y="48"/>
      <point x="617" y="32" type="curve" smooth="yes"/>
      <point x="617" y="16"/>
      <point x="606" y="0"/>
      <point x="585" y="0" type="curve" smooth="yes"/>
      <point x="585" y="0"/>
      <point x="393" y="0"/>
      <point x="393" y="0" type="curve" smooth="yes"/>
      <point x="372" y="0"/>
      <point x="361" y="16"/>
      <point x="361" y="32" type="curve" smooth="yes"/>
      <point x="361" y="48"/>
      <point x="372" y="64"/>
      <point x="393" y="64" type="curve" smooth="yes"/>
      <point x="393" y="64"/>
      <point x="449" y="64"/>
      <point x="449" y="64" type="curve"/>
      <point x="449" y="64"/>
      <point x="334" y="191"/>
      <point x="334" y="191" type="curve"/>
      <point x="334" y="191"/>
      <point x="218" y="64"/>
      <point x="218" y="64" type="curve"/>
      <point x="218" y="64"/>
      <point x="274" y="64"/>
      <point x="274" y="64" type="curve" smooth="yes"/>
      <point x="295" y="64"/>
      <point x="306" y="48"/>
      <point x="306" y="32" type="curve" smooth="yes"/>
      <point x="306" y="16"/>
      <point x="295" y="0"/>
      <point x="274" y="0" type="curve" smooth="yes"/>
      <point x="274" y="0"/>
      <point x="82" y="0"/>
      <point x="82" y="0" type="curve" smooth="yes"/>
      <point x="61" y="0"/>
      <point x="50" y="16"/>
      <point x="50" y="32" type="curve" smooth="yes"/>
      <point x="50" y="48"/>
      <point x="62" y="64"/>
      <point x="82" y="64" type="curve" smooth="yes"/>
      <point x="82" y="64"/>
      <point x="132" y="64"/>
      <point x="132" y="64" type="curve"/>
      <point x="132" y="64"/>
      <point x="291" y="240"/>
      <point x="291" y="240" type="curve"/>
      <point x="291" y="240"/>
      <point x="132" y="416"/>
      <point x="132" y="416" type="curve"/>
      <point x="132" y="416"/>
      <point x="82" y="416"/>
      <point x="82" y="416" type="curve" smooth="yes"/>
      <point x="62" y="416"/>
      <point x="50" y="432"/>
      <point x="50" y="448" type="curve" smooth="yes"/>
      <point x="50" y="464"/>
      <point x="61" y="480"/>
      <point x="82" y="480" type="curve" smooth="yes"/>
      <point x="82" y="480"/>
      <point x="274" y="480"/>
      <point x="274" y="480" type="curve" smooth="yes"/>
      <point x="295" y="480"/>
      <point x="306" y="464"/>
      <point x="306" y="448" type="curve" smooth="yes"/>
      <point x="306" y="432"/>
      <point x="295" y="416"/>
      <point x="274" y="416" type="curve" smooth="yes"/>
      <point x="274" y="416"/>
      <point x="218" y="416"/>
      <point x="218" y="416" type="curve"/>
      <point x="218" y="416"/>
      <point x="334" y="288"/>
      <point x="334" y="288" type="curve"/>
      <point x="334" y="288"/>
      <point x="450" y="416"/>
      <point x="450" y="416" type="curve"/>
      <point x="450" y="416"/>
      <point x="393" y="416"/>
      <point x="393" y="416" type="curve" smooth="yes"/>
      <point x="372" y="416"/>
      <point x="361" y="432"/>
      <point x="361" y="448" type="curve" smooth="yes"/>
      <point x="361" y="464"/>
      <point x="372" y="480"/>
      <point x="393" y="480" type="curve" smooth="yes"/>
      <point x="393" y="480"/>
      <point x="585" y="480"/>
      <point x="585" y="480" type="curve" smooth="yes"/>
      <point x="605" y="480"/>
      <point x="617" y="464"/>
      <point x="617" y="448" type="curve" smooth="yes"/>
      <point x="617" y="432"/>
      <point x="606" y="416"/>
      <point x="585" y="416" type="curve" smooth="yes"/>
      <point x="585" y="416"/>
      <point x="535" y="416"/>
      <point x="535" y="416" type="curve"/>
      <point x="535" y="416"/>
      <point x="376" y="240"/>
      <point x="376" y="240" type="curve"/>
      <point x="376" y="240"/>
      <point x="534" y="64"/>
      <point x="534" y="64" type="curve"/>
      <point x="534" y="64"/>
      <point x="585" y="64"/>
    </contour>
  </outline>
</glyph>
<glyph name="y" format="2">
  <advance width="701"/>
  <unicode hex="0079"/>
  <outline>
    <contour>
      <point x="619" y="480" type="curve" smooth="yes"/>
      <point x="640" y="480"/>
      <point x="651" y="464"/>
      <point x="651" y="448" type="curve" smooth="yes"/>
      <point x="651" y="432"/>
      <point x="640" y="416"/>
      <point x="619" y="416" type="curve" smooth="yes"/>
      <point x="619" y="416"/>
      <point x="559" y="416"/>
      <point x="559" y="416" type="curve"/>
      <point x="559" y="416"/>
      <point x="294" y="-233"/>
      <point x="294" y="-233" type="curve"/>
      <point x="294" y="-233"/>
      <point x="293" y="-233"/>
      <point x="293" y="-233" type="curve"/>
      <point x="293" y="-234"/>
      <point x="293" y="-234"/>
      <point x="293" y="-234" type="curve"/>
      <point x="284" y="-255"/>
      <point x="269" y="-272"/>
      <point x="250" y="-283" type="curve" smooth="yes"/>
      <point x="231" y="-295"/>
      <point x="204" y="-300"/>
      <point x="177" y="-300" type="curve" smooth="yes"/>
      <point x="136" y="-300"/>
      <point x="102" y="-284"/>
      <point x="77" y="-246" type="curve" smooth="yes"/>
      <point x="55" y="-213"/>
      <point x="47" y="-181"/>
      <point x="51" y="-156" type="curve" smooth="yes"/>
      <point x="56" y="-118"/>
      <point x="85" y="-93"/>
      <point x="119" y="-93" type="curve" smooth="yes"/>
      <point x="154" y="-93"/>
      <point x="176" y="-117"/>
      <point x="181" y="-143" type="curve" smooth="yes"/>
      <point x="188" y="-173"/>
      <point x="174" y="-207"/>
      <point x="136" y="-219" type="curve"/>
      <point x="146" y="-230"/>
      <point x="160" y="-236"/>
      <point x="179" y="-236" type="curve" smooth="yes"/>
      <point x="216" y="-236"/>
      <point x="228" y="-222"/>
      <point x="235" y="-208" type="curve" smooth="yes"/>
      <point x="235" y="-208"/>
      <point x="333" y="32"/>
      <point x="333" y="32" type="curve"/>
      <point x="333" y="32"/>
      <point x="175" y="416"/>
      <point x="175" y="416" type="curve"/>
      <point x="175" y="416"/>
      <point x="116" y="416"/>
      <point x="116" y="416" type="curve" smooth="yes"/>
      <point x="95" y="416"/>
      <point x="84" y="432"/>
      <point x="84" y="448" type="curve" smooth="yes"/>
      <point x="84" y="464"/>
      <point x="95" y="480"/>
      <point x="116" y="480" type="curve" smooth="yes"/>
      <point x="116" y="480"/>
      <point x="308" y="480"/>
      <point x="308" y="480" type="curve" smooth="yes"/>
      <point x="329" y="480"/>
      <point x="340" y="464"/>
      <point x="340" y="448" type="curve" smooth="yes"/>
      <point x="340" y="432"/>
      <point x="329" y="416"/>
      <point x="308" y="416" type="curve" smooth="yes"/>
      <point x="308" y="416"/>
      <point x="245" y="416"/>
      <point x="245" y="416" type="curve"/>
      <point x="245" y="416"/>
      <point x="368" y="117"/>
      <point x="368" y="117" type="curve"/>
      <point x="368" y="117"/>
      <point x="490" y="416"/>
      <point x="490" y="416" type="curve"/>
      <point x="490" y="416"/>
      <point x="427" y="416"/>
      <point x="427" y="416" type="curve" smooth="yes"/>
      <point x="406" y="416"/>
      <point x="395" y="432"/>
      <point x="395" y="448" type="curve" smooth="yes"/>
      <point x="395" y="464"/>
      <point x="406" y="480"/>
      <point x="427" y="480" type="curve" smooth="yes"/>
      <point x="427" y="480"/>
      <point x="619" y="480"/>
    </contour>
  </outline>
</glyph>
<glyph name="z" format="2">
  <advance width="493"/>
  <unicode hex="007A"/>
  <outline>
    <contour>
      <point x="411" y="0" type="curve" smooth="yes"/>
      <point x="411" y="0"/>
      <point x="82" y="0"/>
      <point x="82" y="0" type="curve" smooth="yes"/>
      <point x="55" y="0"/>
      <point x="40" y="31"/>
      <point x="57" y="52" type="curve" smooth="yes"/>
      <point x="57" y="52"/>
      <point x="345" y="416"/>
      <point x="345" y="416" type="curve"/>
      <point x="345" y="416"/>
      <point x="114" y="416"/>
      <point x="114" y="416" type="curve"/>
      <point x="114" y="416"/>
      <point x="114" y="352"/>
      <point x="114" y="352" type="curve" smooth="yes"/>
      <point x="114" y="332"/>
      <point x="98" y="320"/>
      <point x="82" y="320" type="curve" smooth="yes"/>
      <point x="67" y="320"/>
      <point x="50" y="332"/>
      <point x="50" y="352" type="curve" smooth="yes"/>
      <point x="50" y="352"/>
      <point x="50" y="448"/>
      <point x="50" y="448" type="curve" smooth="yes"/>
      <point x="50" y="466"/>
      <point x="64" y="480"/>
      <point x="82" y="480" type="curve" smooth="yes"/>
      <point x="82" y="480"/>
      <point x="411" y="480"/>
      <point x="411" y="480" type="curve" smooth="yes"/>
      <point x="423" y="480"/>
      <point x="434" y="473"/>
      <point x="440" y="462" type="curve" smooth="yes"/>
      <point x="445" y="451"/>
      <point x="444" y="438"/>
      <point x="436" y="428" type="curve" smooth="yes"/>
      <point x="436" y="428"/>
      <point x="148" y="64"/>
      <point x="148" y="64" type="curve"/>
      <point x="148" y="64"/>
      <point x="379" y="64"/>
      <point x="379" y="64" type="curve"/>
      <point x="379" y="64"/>
      <point x="379" y="128"/>
      <point x="379" y="128" type="curve" smooth="yes"/>
      <point x="379" y="149"/>
      <point x="396" y="160"/>
      <point x="411" y="160" type="curve" smooth="yes"/>
      <point x="427" y="160"/>
      <point x="443" y="149"/>
      <point x="443" y="128" type="curve" smooth="yes"/>
      <point x="443" y="128"/>
      <point x="443" y="32"/>
      <point x="443" y="32" type="curve" smooth="yes"/>
      <point x="443" y="14"/>
      <point x="429" y="0"/>
    </contour>
  </outline>
</glyph>
